<?xml version="1.0" encoding="utf-8"?>
<!-- Generator: Adobe Illustrator 23.0.3, SVG Export Plug-In . SVG Version: 6.00 Build 0)  -->
<svg version="1.1" id="Layer_1" xmlns="http://www.w3.org/2000/svg" xmlns:xlink="http://www.w3.org/1999/xlink" x="0px" y="0px"
	 viewBox="0 0 595.3 841.9" style="enable-background:new 0 0 595.3 841.9;" xml:space="preserve">
<style type="text/css">
	.st0{fill:#F2F2F3;}
	.st1{fill:#9B9B9B;}
	.st2{font-family:'Arial-BoldMT';}
	.st3{font-size:37.5399px;}
	.st4{fill:#FFCE57;}
	.st5{fill:#ED9E3F;}
	.st6{fill:#EDE369;}
	.st7{fill:#EABA69;}
	.st8{fill:#B5B5B6;}
	.st9{font-size:12px;}
	.st10{fill:#5266AF;}
	.st11{font-size:17.9678px;}
	.st12{fill:#CFCFCE;}
	.st13{fill:#EE366B;}
	.st14{fill:#E54041;}
	.st15{fill:#73BF44;}
	.st16{fill:#9ACA3C;}
	.st17{font-size:53.3531px;}
</style>
<g>
	<polygon class="st0" points="250.8,0 0,250.8 0,841.9 595.3,841.9 595.3,0 	"/>
</g>
<g>
	<g>
		<text transform="matrix(0.9971 7.626626e-02 -7.626626e-02 0.9971 91.8211 317.1225)" class="st1 st2 st3">“SO EASY A FUCKING</text>
		<text transform="matrix(0.9971 7.626626e-02 -7.626626e-02 0.9971 112.3196 363.8223)" class="st1 st2 st3">ENGG COULD DO IT”</text>
	</g>
	<g>
		<text transform="matrix(0.9971 7.626626e-02 -7.626626e-02 0.9971 94.2413 314.7023)" class="st2 st3">“SO EASY A FUCKING</text>
		<text transform="matrix(0.9971 7.626626e-02 -7.626626e-02 0.9971 114.7397 361.4022)" class="st2 st3">ENGG COULD DO IT”</text>
	</g>
	
		<rect x="155.3" y="118.1" transform="matrix(0.7071 -0.7071 0.7071 0.7071 -41.5151 152.9113)" class="st4" width="17" height="17"/>
	<path class="st5" d="M123.6,132.3l19.7,29.5c1.9,2.9,5.2,4.7,8.7,4.7h20v-15h-12c-3.5,0-6.7-1.8-8.7-4.7l-9.7-14.5
		c-2.3-3.5-2.3-8,0-11.5l9.7-14.5c1.9-2.9,5.2-4.6,8.7-4.6h12v-15h-7.8l-42.1,42.1C122.4,130,122.9,131.2,123.6,132.3z"/>
	<path class="st4" d="M187.9,156.1v-35.9h26.6v6.1h-19.4v8h18v6h-18v9.8h20.1v6H187.9z"/>
	<g>
		<path class="st4" d="M252.1,156.1h-7.9l-3.1-8.2h-14.3l-3,8.2h-7.7l14-35.9h7.7L252.1,156.1z M238.8,141.9l-4.9-13.3l-4.8,13.3
			H238.8z"/>
		<path class="st4" d="M252.5,144.4l7.1-0.7c0.4,2.4,1.3,4.1,2.6,5.2c1.3,1.1,3,1.7,5.3,1.7s4.1-0.5,5.3-1.5c1.2-1,1.8-2.1,1.8-3.5
			c0-0.8-0.2-1.6-0.7-2.2c-0.5-0.6-1.4-1.1-2.6-1.6c-0.8-0.3-2.8-0.8-5.8-1.6c-3.9-1-6.6-2.1-8.2-3.6c-2.2-2-3.3-4.4-3.3-7.2
			c0-1.8,0.5-3.5,1.6-5.1c1-1.6,2.5-2.8,4.5-3.6s4.3-1.2,7.1-1.2c4.5,0,7.9,1,10.2,3c2.3,2,3.5,4.6,3.6,7.9l-7.2,0.3
			c-0.3-1.8-1-3.2-2-4s-2.6-1.2-4.6-1.2c-2.1,0-3.8,0.4-4.9,1.3c-0.8,0.6-1.2,1.3-1.2,2.2c0,0.8,0.4,1.6,1.1,2.2
			c0.9,0.8,3.1,1.6,6.7,2.4s6.1,1.7,7.8,2.6s3,2.1,4,3.6s1.4,3.4,1.4,5.7c0,2.1-0.6,4-1.7,5.8s-2.8,3.1-4.8,4s-4.7,1.3-7.8,1.3
			c-4.5,0-8-1-10.5-3.1C254.5,151.5,253,148.4,252.5,144.4z"/>
		<path class="st4" d="M295.6,156.1V141l-13.1-20.8h8.5l8.4,14.2l8.3-14.2h8.3L302.9,141v15.1H295.6z"/>
	</g>
	<g>
		<path class="st5" d="M329.5,156.1v-35.9h26.6v6.1h-19.4v8h18v6h-18v9.8h20.1v6H329.5z"/>
		<path class="st5" d="M361.3,120.2h13.2c3,0,5.3,0.2,6.8,0.7c2.1,0.6,3.9,1.7,5.4,3.3c1.5,1.6,2.6,3.5,3.4,5.8s1.2,5.1,1.2,8.5
			c0,3-0.4,5.5-1.1,7.6c-0.9,2.6-2.2,4.7-3.8,6.3c-1.3,1.2-3,2.2-5.1,2.9c-1.6,0.5-3.7,0.8-6.4,0.8h-13.6V120.2z M368.5,126.3V150
			h5.4c2,0,3.5-0.1,4.4-0.3c1.2-0.3,2.2-0.8,2.9-1.5c0.8-0.7,1.4-1.9,1.9-3.5s0.7-3.8,0.7-6.6s-0.2-4.9-0.7-6.4s-1.2-2.6-2.1-3.5
			c-0.9-0.8-2-1.4-3.4-1.7c-1-0.2-3-0.3-6-0.3h-3.1V126.3z"/>
		<path class="st5" d="M395.9,120.2h7.2v19.4c0,3.1,0.1,5.1,0.3,6c0.3,1.5,1,2.6,2.2,3.5s2.8,1.3,4.8,1.3c2.1,0,3.6-0.4,4.7-1.3
			c1-0.8,1.7-1.9,1.9-3.1s0.3-3.3,0.3-6.1V120h7.2v19c0,4.3-0.2,7.4-0.6,9.1c-0.4,1.8-1.1,3.3-2.2,4.5s-2.5,2.2-4.2,2.9
			s-4.1,1.1-6.9,1.1c-3.4,0-6-0.4-7.8-1.2s-3.2-1.8-4.2-3.1s-1.7-2.6-2-4c-0.5-2.1-0.7-5.1-0.7-9.1L395.9,120.2L395.9,120.2z"/>
	</g>
	<polygon class="st6" points="561.7,286.9 520.2,272.8 485,299 485.6,255.2 449.8,229.9 491.7,216.9 504.7,175 530,210.8 
		573.8,210.3 547.6,245.4 	"/>
	<polygon class="st7" points="120,502 95.5,478.4 62.1,485.2 77,454.6 60.2,425 93.9,429.7 116.9,404.5 122.9,438.1 153.8,452.1 
		123.8,468.2 	"/>
	<text transform="matrix(1 0 0 1 188.123 103.4815)" class="st8 st2 st9">Powered by Java</text>
	<text transform="matrix(1 0 0 1 331.5748 474.6139)" class="st10 st2 st11">When I think of imcompetence </text>
	<text transform="matrix(1 0 0 1 425.6748 494.6139)" class="st10 st2 st11">I think of Easy EDU</text>
	<text transform="matrix(1 0 0 1 493.9748 524.5139)" class="st10 st2 st11">- X Æ A-Xii</text>
	<polygon class="st6" points="345.6,507.5 348.6,513.6 355.4,514.6 350.5,519.3 351.6,526.1 345.6,522.9 339.5,526.1 340.7,519.3 
		335.8,514.6 342.6,513.6 	"/>
	<polygon class="st12" points="370.2,507.5 373.2,513.6 379.9,514.6 375.1,519.3 376.2,526.1 370.2,522.9 364.1,526.1 365.3,519.3 
		360.4,514.6 367.1,513.6 	"/>
	<polygon class="st12" points="394.8,507.5 397.8,513.6 404.5,514.6 399.6,519.3 400.8,526.1 394.8,522.9 388.7,526.1 389.9,519.3 
		385,514.6 391.7,513.6 	"/>
	<polygon class="st12" points="419.4,507.5 422.4,513.6 429.1,514.6 424.2,519.3 425.4,526.1 419.4,522.9 413.3,526.1 414.5,519.3 
		409.6,514.6 416.3,513.6 	"/>
	<polygon class="st12" points="443.9,507.5 447,513.6 453.7,514.6 448.8,519.3 450,526.1 443.9,522.9 437.9,526.1 439.1,519.3 
		434.2,514.6 440.9,513.6 	"/>
	<text transform="matrix(1 0 0 1 99.7162 562.6139)" class="st13 st2 st11">This program saved me</text>
	<text transform="matrix(1 0 0 1 115.3162 580.6139)" class="st13 st2 st11">from University debt!!</text>
	<text transform="matrix(1 0 0 1 180.9162 610.5139)" class="st13 st2 st11">- Anonymous</text>
	<polygon class="st14" points="52.5,595.9 55.5,602.1 62.2,603 57.3,607.8 58.5,614.5 52.5,611.4 46.4,614.5 47.6,607.8 42.7,603 
		49.4,602.1 	"/>
	<polygon class="st12" points="77,595.9 80.1,602.1 86.8,603 81.9,607.8 83.1,614.5 77,611.4 71,614.5 72.2,607.8 67.3,603 
		74,602.1 	"/>
	<polygon class="st12" points="101.6,595.9 104.7,602.1 111.4,603 106.5,607.8 107.7,614.5 101.6,611.4 95.6,614.5 96.7,607.8 
		91.9,603 98.6,602.1 	"/>
	<polygon class="st12" points="126.2,595.9 129.3,602.1 136,603 131.1,607.8 132.3,614.5 126.2,611.4 120.2,614.5 121.3,607.8 
		116.4,603 123.2,602.1 	"/>
	<polygon class="st14" points="150.8,595.9 153.8,602.1 160.6,603 155.7,607.8 156.9,614.5 150.8,611.4 144.8,614.5 145.9,607.8 
		141,603 147.8,602.1 	"/>
	<polygon class="st14" points="126.2,595.9 129.3,602.1 136,603 131.1,607.8 132.3,614.5 126.2,611.4 120.2,614.5 121.3,607.8 
		116.4,603 123.2,602.1 	"/>
	<polygon class="st14" points="101.6,595.9 104.7,602.1 111.4,603 106.5,607.8 107.7,614.5 101.6,611.4 95.6,614.5 96.7,607.8 
		91.9,603 98.6,602.1 	"/>
	<polygon class="st14" points="77,595.9 80.1,602.1 86.8,603 81.9,607.8 83.1,614.5 77,611.4 71,614.5 72.2,607.8 67.3,603 
		74,602.1 	"/>
	<text transform="matrix(1 0 0 1 366.6606 632.8361)" class="st15 st2 st11">If you need to reversably</text>
	<text transform="matrix(1 0 0 1 273.4606 647.8361)" class="st15 st2 st11">synergize a linked list, this is for you</text>
	<text transform="matrix(1 0 0 1 445.2606 677.7361)" class="st15 st2 st11">- Ex Tech Lead</text>
	<polygon class="st16" points="327.1,662.1 330.1,668.3 336.9,669.3 332,674 333.1,680.8 327.1,677.6 321,680.8 322.2,674 
		317.3,669.3 324.1,668.3 	"/>
	<polygon class="st16" points="351.7,662.1 354.7,668.3 361.5,669.3 356.6,674 357.7,680.8 351.7,677.6 345.6,680.8 346.8,674 
		341.9,669.3 348.7,668.3 	"/>
	<polygon class="st16" points="376.3,662.1 379.3,668.3 386,669.3 381.2,674 382.3,680.8 376.3,677.6 370.2,680.8 371.4,674 
		366.5,669.3 373.2,668.3 	"/>
	<polygon class="st16" points="400.9,662.1 403.9,668.3 410.6,669.3 405.8,674 406.9,680.8 400.9,677.6 394.8,680.8 396,674 
		391.1,669.3 397.8,668.3 	"/>
	<polygon class="st12" points="425.5,662.1 428.5,668.3 435.2,669.3 430.3,674 431.5,680.8 425.5,677.6 419.4,680.8 420.6,674 
		415.7,669.3 422.4,668.3 	"/>
	<polygon class="st16" points="400.9,662.1 403.9,668.3 410.6,669.3 405.8,674 406.9,680.8 400.9,677.6 394.8,680.8 396,674 
		391.1,669.3 397.8,668.3 	"/>
	<polygon class="st16" points="376.3,662.1 379.3,668.3 386,669.3 381.2,674 382.3,680.8 376.3,677.6 370.2,680.8 371.4,674 
		366.5,669.3 373.2,668.3 	"/>
	<polygon class="st16" points="351.7,662.1 354.7,668.3 361.5,669.3 356.6,674 357.7,680.8 351.7,677.6 345.6,680.8 346.8,674 
		341.9,669.3 348.7,668.3 	"/>
	<text transform="matrix(1 0 0 1 166.6653 237.032)" class="st2 st17">Apply Now</text>
</g>
</svg>
